<svg xmlns="http://www.w3.org/2000/svg" xmlns:xlink="http://www.w3.org/1999/xlink" xml:space="preserve" version="1.1" style="shape-rendering:geometricPrecision;text-rendering:geometricPrecision;image-rendering:optimizeQuality;" viewBox="0 0 847 847" x="0px" y="0px" fill-rule="evenodd" clip-rule="evenodd"><defs><style type="text/css">
   
    .fil0 {fill:none}
    .fil1 {fill:black;fill-rule:nonzero}
   
  </style></defs><g><rect class="fil0" width="847" height="847"/><path class="fil1" d="M712 63c-98,15 -194,46 -276,103l0 514c86,-46 178,-77 276,-82l0 -535zm-294 698c-111,-54 -228,-89 -351,-92 -7,0 -13,-6 -13,-12l0 -513 -12 -1 0 548c133,5 260,39 381,93 122,-54 248,-88 381,-93l0 -548 -12 1 0 513c0,6 -5,12 -12,12 -123,3 -240,38 -351,92 -3,2 -8,2 -11,0zm-309 -656l-29 -5 0 544c120,5 235,39 343,92 109,-53 223,-87 344,-92l0 -544 -29 5 0 505c0,7 -6,12 -13,13 -108,2 -201,38 -295,89 -8,6 -17,-2 -24,-6 -88,-48 -183,-81 -284,-83 -7,-1 -13,-6 -13,-13l0 -505zm26 -42l0 535c98,5 190,36 276,82l0 -514c-83,-57 -178,-88 -276,-103z"/></g></svg>