<svg xmlns="http://www.w3.org/2000/svg" data-name="Layer 1" viewBox="0 0 110 137.5" x="0px" y="0px"><path d="M98.71,80.67H94.65a5.51,5.51,0,0,0,1.27-3.51V11.52A5.53,5.53,0,0,0,90.4,6H72.82a5.49,5.49,0,0,0-4.51,2.36A5.53,5.53,0,0,0,63.79,6H46.21A5.49,5.49,0,0,0,41.7,8.36,5.53,5.53,0,0,0,37.18,6H19.6a5.53,5.53,0,0,0-5.52,5.52V77.16a5.51,5.51,0,0,0,1.27,3.51H11.29A5.3,5.3,0,0,0,6,86v5a5.31,5.31,0,0,0,5.29,5.3h.15v4.28A3.48,3.48,0,0,0,14.92,104H27.16a3.48,3.48,0,0,0,3.47-3.47V96.25H79.37v4.28A3.48,3.48,0,0,0,82.85,104H95.09a3.48,3.48,0,0,0,3.47-3.47V96.25h.15A5.31,5.31,0,0,0,104,91V86A5.3,5.3,0,0,0,98.71,80.67Zm-25.92,0a3.52,3.52,0,0,1-3.48-3.51V72H93.92v5.18a3.53,3.53,0,0,1-3.49,3.51Zm-26.61,0a3.52,3.52,0,0,1-3.48-3.51V72H67.31v5.18a3.53,3.53,0,0,1-3.49,3.51ZM16.08,27.46H40.7V61.22H16.08Zm0-8.76H40.7v6.76H16.08ZM93.92,61.22H69.31V27.46H93.92Zm0,8.76H69.31V63.22H93.92ZM67.31,61.22H42.7V27.46H67.31Zm-24.61,2H67.31V70H42.7ZM93.92,25.46H69.31V18.7H93.92Zm-26.61,0H42.7V18.7H67.31ZM16.08,63.22H40.7V70H16.08ZM42,80.67h-.53l.27-.36C41.78,80.44,41.87,80.55,42,80.67Zm26.35-.36c.08.13.17.24.26.36H68ZM72.82,8H90.4a3.53,3.53,0,0,1,3.52,3.52V16.7H69.31V11.52A3.52,3.52,0,0,1,72.82,8ZM46.21,8H63.79a3.53,3.53,0,0,1,3.52,3.52V16.7H42.7V11.52A3.52,3.52,0,0,1,46.21,8ZM19.6,8H37.18a3.53,3.53,0,0,1,3.52,3.52V16.7H16.08V11.52A3.53,3.53,0,0,1,19.6,8ZM16.08,77.16V72H40.7v5.18a3.53,3.53,0,0,1-3.49,3.51H19.57A3.53,3.53,0,0,1,16.08,77.16Zm12.55,23.37A1.47,1.47,0,0,1,27.16,102H14.92a1.47,1.47,0,0,1-1.48-1.47V96.25H28.63Zm67.93,0A1.47,1.47,0,0,1,95.09,102H82.85a1.48,1.48,0,0,1-1.48-1.47V96.25H96.56ZM102,91a3.3,3.3,0,0,1-3.29,3.3H11.29A3.3,3.3,0,0,1,8,91V86a3.3,3.3,0,0,1,3.29-3.29H98.71A3.3,3.3,0,0,1,102,86ZM74.31,36.51a1,1,0,0,1,1-1h12.6a1,1,0,0,1,0,2H75.31A1,1,0,0,1,74.31,36.51Zm14.6,5.82a1,1,0,0,1-1,1H86.27a1,1,0,0,1,0-2h1.64A1,1,0,0,1,88.91,42.33Zm-14.6,0a1,1,0,0,1,1-1h7a1,1,0,0,1,0,2h-7A1,1,0,0,1,74.31,42.33Zm0,5.82a1,1,0,0,1,1-1h12.6a1,1,0,0,1,0,2H75.31A1,1,0,0,1,74.31,48.15ZM84.77,54a1,1,0,0,1-1,1H75.31a1,1,0,0,1,0-2h8.46A1,1,0,0,1,84.77,54ZM47.7,36.51a1,1,0,0,1,1-1H61.3a1,1,0,0,1,0,2H48.7A1,1,0,0,1,47.7,36.51Zm14.6,5.82a1,1,0,0,1-1,1H59.66a1,1,0,0,1,0-2H61.3A1,1,0,0,1,62.3,42.33Zm-14.6,0a1,1,0,0,1,1-1h7a1,1,0,0,1,0,2h-7A1,1,0,0,1,47.7,42.33Zm0,5.82a1,1,0,0,1,1-1H61.3a1,1,0,0,1,0,2H48.7A1,1,0,0,1,47.7,48.15ZM58.16,54a1,1,0,0,1-1,1H48.7a1,1,0,0,1,0-2h8.46A1,1,0,0,1,58.16,54ZM21.09,36.51a1,1,0,0,1,1-1h12.6a1,1,0,0,1,0,2H22.09A1,1,0,0,1,21.09,36.51Zm14.6,5.82a1,1,0,0,1-1,1H33a1,1,0,0,1,0-2h1.65A1,1,0,0,1,35.69,42.33Zm-14.6,0a1,1,0,0,1,1-1h7a1,1,0,1,1,0,2H22.09A1,1,0,0,1,21.09,42.33Zm14.6,5.82a1,1,0,0,1-1,1H22.09a1,1,0,1,1,0-2h12.6A1,1,0,0,1,35.69,48.15ZM31.54,54a1,1,0,0,1-1,1H22.09a1,1,0,1,1,0-2h8.45A1,1,0,0,1,31.54,54Z"/></svg>